<svg xmlns="http://www.w3.org/2000/svg" width="80" height="80" viewBox="0 0 80 80" fill="none"><rect x="0.5" y="0.5" width="79" height="79" rx="11.5" fill="url(#paint0_linear_99_1755)"></rect><rect x="0.5" y="0.5" width="79" height="79" rx="11.5" stroke="url(#paint1_linear_99_1755)"></rect><rect x="0.5" y="0.5" width="79" height="79" rx="11.5" stroke="url(#paint2_linear_99_1755)"></rect><rect x="0.5" y="0.5" width="79" height="79" rx="11.5" stroke="url(#paint3_linear_99_1755)"></rect><rect x="0.5" y="0.5" width="79" height="79" rx="11.5" stroke="url(#paint4_linear_99_1755)"></rect><rect x="0.5" y="0.5" width="79" height="79" rx="11.5" stroke="url(#paint5_linear_99_1755)"></rect><rect x="0.5" y="0.5" width="79" height="79" rx="11.5" stroke="url(#paint6_linear_99_1755)"></rect><path d="M51.2 31.2C45.184 31.2 42.2144 35.44 39.344 39.5407C36.5872 43.48 33.984 47.2 28.8 47.2C24.8304 47.2 21.6 43.9696 21.6 40C21.6 36.0303 24.8304 32.8 28.8 32.8C32.9472 32.8 35.376 35.1807 37.3856 37.7567C37.656 38.1007 38.1584 38.1679 38.5072 37.896C38.8559 37.624 38.9184 37.12 38.6464 36.7712C36.4976 34.0176 33.6464 31.2 28.8 31.2C23.9472 31.2 20 35.1488 20 40C20 44.8511 23.9472 48.8 28.8 48.8C34.816 48.8 37.7856 44.56 40.656 40.4592C43.4128 36.52 46.016 32.8 51.2 32.8C55.1696 32.8 58.4 36.0303 58.4 40C58.4 43.9696 55.1696 47.2 51.2 47.2C47.0528 47.2 44.624 44.8192 42.6144 42.2432C42.3408 41.896 41.84 41.832 41.4927 42.1039C41.1439 42.376 41.0816 42.88 41.3535 43.2287C43.5023 45.9823 46.3535 48.7999 51.1999 48.7999C56.0528 48.8 60 44.8511 60 40C60 35.1488 56.0528 31.2 51.2 31.2Z" fill="url(#paint7_linear_99_1755)"></path><defs><linearGradient id="paint0_linear_99_1755" x1="77.4768" y1="4.33982e-06" x2="-11.0803" y2="64.8748" gradientUnits="userSpaceOnUse"><stop stop-color="#13182A"></stop><stop offset="1" stop-color="#0B0E18"></stop></linearGradient><linearGradient id="paint1_linear_99_1755" x1="42.6549" y1="0" x2="42.6549" y2="80" gradientUnits="userSpaceOnUse"><stop stop-color="#040E25" stop-opacity="0.4"></stop><stop offset="0.49423" stop-color="#3970E9" stop-opacity="0.8"></stop><stop offset="1" stop-color="#040E25" stop-opacity="0.4"></stop></linearGradient><linearGradient id="paint2_linear_99_1755" x1="29.2393" y1="-8.51511e-08" x2="78.104" y2="2.00164" gradientUnits="userSpaceOnUse"><stop stop-color="#040E25" stop-opacity="0.4"></stop><stop offset="0.49423" stop-color="#3970E9" stop-opacity="0.8"></stop><stop offset="1" stop-color="#040E25" stop-opacity="0.4"></stop></linearGradient><linearGradient id="paint3_linear_99_1755" x1="42.6549" y1="0" x2="42.6549" y2="80" gradientUnits="userSpaceOnUse"><stop stop-color="#040E25" stop-opacity="0.4"></stop><stop offset="0.49423" stop-color="#3970E9" stop-opacity="0.8"></stop><stop offset="1" stop-color="#040E25" stop-opacity="0.4"></stop></linearGradient><linearGradient id="paint4_linear_99_1755" x1="29.2393" y1="-8.51511e-08" x2="78.104" y2="2.00164" gradientUnits="userSpaceOnUse"><stop stop-color="#040E25" stop-opacity="0.4"></stop><stop offset="0.49423" stop-color="#3970E9" stop-opacity="0.8"></stop><stop offset="1" stop-color="#040E25" stop-opacity="0.4"></stop></linearGradient><linearGradient id="paint5_linear_99_1755" x1="42.6549" y1="0" x2="42.6549" y2="80" gradientUnits="userSpaceOnUse"><stop stop-color="#040E25" stop-opacity="0.4"></stop><stop offset="0.49423" stop-color="#3970E9" stop-opacity="0.8"></stop><stop offset="1" stop-color="#040E25" stop-opacity="0.4"></stop></linearGradient><linearGradient id="paint6_linear_99_1755" x1="29.2393" y1="-8.51511e-08" x2="78.104" y2="2.00164" gradientUnits="userSpaceOnUse"><stop stop-color="#040E25" stop-opacity="0.4"></stop><stop offset="0.49423" stop-color="#3970E9" stop-opacity="0.8"></stop><stop offset="1" stop-color="#040E25" stop-opacity="0.4"></stop></linearGradient><linearGradient id="paint7_linear_99_1755" x1="28.2909" y1="32.3" x2="51.8714" y2="34.6753" gradientUnits="userSpaceOnUse"><stop stop-color="white"></stop><stop offset="1" stop-color="#A4A4A6"></stop></linearGradient></defs></svg>