<svg xmlns="http://www.w3.org/2000/svg" width="80" height="80" viewBox="0 0 80 80" fill="none"><rect x="0.5" y="0.5" width="79" height="79" rx="11.5" fill="url(#paint0_linear_99_1737)"></rect><rect x="0.5" y="0.5" width="79" height="79" rx="11.5" stroke="url(#paint1_linear_99_1737)"></rect><rect x="0.5" y="0.5" width="79" height="79" rx="11.5" stroke="url(#paint2_linear_99_1737)"></rect><rect x="0.5" y="0.5" width="79" height="79" rx="11.5" stroke="url(#paint3_linear_99_1737)"></rect><rect x="0.5" y="0.5" width="79" height="79" rx="11.5" stroke="url(#paint4_linear_99_1737)"></rect><rect x="0.5" y="0.5" width="79" height="79" rx="11.5" stroke="url(#paint5_linear_99_1737)"></rect><rect x="0.5" y="0.5" width="79" height="79" rx="11.5" stroke="url(#paint6_linear_99_1737)"></rect><g clip-path="url(#clip0_99_1737)"><path d="M40 20C28.9876 20 20 28.9882 20 40C20 51.0124 28.9882 60 40 60C51.0124 60 60 51.0117 60 40C60 28.9876 51.0118 20 40 20ZM40 57.6562C30.2643 57.6562 22.3438 49.7357 22.3438 40C22.3438 30.2643 30.2643 22.3438 40 22.3438C49.7357 22.3438 57.6562 30.2643 57.6562 40C57.6562 49.7357 49.7357 57.6562 40 57.6562Z" fill="url(#paint7_linear_99_1737)"></path><path d="M30.0563 51.1155C30.7035 51.1155 31.2281 50.5908 31.2281 49.9436C31.2281 49.2964 30.7035 48.7717 30.0563 48.7717C29.4091 48.7717 28.8844 49.2964 28.8844 49.9436C28.8844 50.5908 29.4091 51.1155 30.0563 51.1155Z" fill="url(#paint8_linear_99_1737)"></path><path d="M49.9437 31.2283C50.5909 31.2283 51.1156 30.7036 51.1156 30.0564C51.1156 29.4092 50.5909 28.8845 49.9437 28.8845C49.2965 28.8845 48.7719 29.4092 48.7719 30.0564C48.7719 30.7036 49.2965 31.2283 49.9437 31.2283Z" fill="url(#paint9_linear_99_1737)"></path><path d="M29.2276 29.2278C28.77 29.6854 28.77 30.4274 29.2276 30.885C29.6853 31.3427 30.4273 31.3427 30.8849 30.885C31.3426 30.4274 31.3426 29.6854 30.8849 29.2278C30.4273 28.7701 29.6853 28.7701 29.2276 29.2278Z" fill="url(#paint10_linear_99_1737)"></path><path d="M49.1151 49.115C48.6574 49.5726 48.6574 50.3146 49.1151 50.7722C49.5727 51.2299 50.3147 51.2299 50.7724 50.7722C51.23 50.3146 51.23 49.5726 50.7724 49.115C50.3147 48.6573 49.5727 48.6573 49.1151 49.115Z" fill="url(#paint11_linear_99_1737)"></path><path d="M40 29.4531C40.6472 29.4531 41.1719 28.9284 41.1719 28.2812V25.9375C41.1719 25.2903 40.6472 24.7656 40 24.7656C39.3528 24.7656 38.8281 25.2903 38.8281 25.9375V28.2812C38.8281 28.9284 39.3528 29.4531 40 29.4531Z" fill="url(#paint12_linear_99_1737)"></path><path d="M40 50.5469C39.3528 50.5469 38.8281 51.0716 38.8281 51.7188V54.0625C38.8281 54.7097 39.3528 55.2344 40 55.2344C40.6472 55.2344 41.1719 54.7097 41.1719 54.0625V51.7188C41.1719 51.0716 40.6472 50.5469 40 50.5469Z" fill="url(#paint13_linear_99_1737)"></path><path d="M29.4531 40C29.4531 39.3528 28.9284 38.8281 28.2812 38.8281H25.9375C25.2903 38.8281 24.7656 39.3528 24.7656 40C24.7656 40.6472 25.2903 41.1719 25.9375 41.1719H28.2812C28.9284 41.1719 29.4531 40.6472 29.4531 40Z" fill="url(#paint14_linear_99_1737)"></path><path d="M50.5469 40C50.5469 40.6472 51.0716 41.1719 51.7188 41.1719H54.0625C54.7097 41.1719 55.2344 40.6472 55.2344 40C55.2344 39.3528 54.7097 38.8281 54.0625 38.8281H51.7188C51.0716 38.8281 50.5469 39.3528 50.5469 40Z" fill="url(#paint15_linear_99_1737)"></path><path d="M41.1719 39.5146V32.9688C41.1719 32.3216 40.6472 31.7969 40 31.7969C39.3528 31.7969 38.8281 32.3216 38.8281 32.9688V40C38.8281 40.3108 38.9516 40.6088 39.1714 40.8287L46.2027 47.8599C46.6602 48.3175 47.4023 48.3176 47.8599 47.8599C48.3176 47.4023 48.3176 46.6603 47.8599 46.2027L41.1719 39.5146Z" fill="url(#paint16_linear_99_1737)"></path></g><defs><linearGradient id="paint0_linear_99_1737" x1="77.4768" y1="4.33982e-06" x2="-11.0803" y2="64.8748" gradientUnits="userSpaceOnUse"><stop stop-color="#13182A"></stop><stop offset="1" stop-color="#0B0E18"></stop></linearGradient><linearGradient id="paint1_linear_99_1737" x1="42.6549" y1="0" x2="42.6549" y2="80" gradientUnits="userSpaceOnUse"><stop stop-color="#040E25" stop-opacity="0.4"></stop><stop offset="0.49423" stop-color="#3970E9" stop-opacity="0.8"></stop><stop offset="1" stop-color="#040E25" stop-opacity="0.4"></stop></linearGradient><linearGradient id="paint2_linear_99_1737" x1="29.2393" y1="-8.51511e-08" x2="78.104" y2="2.00164" gradientUnits="userSpaceOnUse"><stop stop-color="#040E25" stop-opacity="0.4"></stop><stop offset="0.49423" stop-color="#3970E9" stop-opacity="0.8"></stop><stop offset="1" stop-color="#040E25" stop-opacity="0.4"></stop></linearGradient><linearGradient id="paint3_linear_99_1737" x1="42.6549" y1="0" x2="42.6549" y2="80" gradientUnits="userSpaceOnUse"><stop stop-color="#040E25" stop-opacity="0.4"></stop><stop offset="0.49423" stop-color="#3970E9" stop-opacity="0.8"></stop><stop offset="1" stop-color="#040E25" stop-opacity="0.4"></stop></linearGradient><linearGradient id="paint4_linear_99_1737" x1="29.2393" y1="-8.51511e-08" x2="78.104" y2="2.00164" gradientUnits="userSpaceOnUse"><stop stop-color="#040E25" stop-opacity="0.4"></stop><stop offset="0.49423" stop-color="#3970E9" stop-opacity="0.8"></stop><stop offset="1" stop-color="#040E25" stop-opacity="0.4"></stop></linearGradient><linearGradient id="paint5_linear_99_1737" x1="42.6549" y1="0" x2="42.6549" y2="80" gradientUnits="userSpaceOnUse"><stop stop-color="#040E25" stop-opacity="0.4"></stop><stop offset="0.49423" stop-color="#3970E9" stop-opacity="0.8"></stop><stop offset="1" stop-color="#040E25" stop-opacity="0.4"></stop></linearGradient><linearGradient id="paint6_linear_99_1737" x1="29.2393" y1="-8.51511e-08" x2="78.104" y2="2.00164" gradientUnits="userSpaceOnUse"><stop stop-color="#040E25" stop-opacity="0.4"></stop><stop offset="0.49423" stop-color="#3970E9" stop-opacity="0.8"></stop><stop offset="1" stop-color="#040E25" stop-opacity="0.4"></stop></linearGradient><linearGradient id="paint7_linear_99_1737" x1="28.2909" y1="22.5" x2="52.0639" y2="23.5537" gradientUnits="userSpaceOnUse"><stop stop-color="white"></stop><stop offset="1" stop-color="#A4A4A6"></stop></linearGradient><linearGradient id="paint8_linear_99_1737" x1="29.3702" y1="48.9182" x2="30.7631" y2="48.98" gradientUnits="userSpaceOnUse"><stop stop-color="white"></stop><stop offset="1" stop-color="#A4A4A6"></stop></linearGradient><linearGradient id="paint9_linear_99_1737" x1="49.2576" y1="29.031" x2="50.6506" y2="29.0927" gradientUnits="userSpaceOnUse"><stop stop-color="white"></stop><stop offset="1" stop-color="#A4A4A6"></stop></linearGradient><linearGradient id="paint10_linear_99_1737" x1="29.3702" y1="29.031" x2="30.7631" y2="29.0927" gradientUnits="userSpaceOnUse"><stop stop-color="white"></stop><stop offset="1" stop-color="#A4A4A6"></stop></linearGradient><linearGradient id="paint11_linear_99_1737" x1="49.2576" y1="48.9182" x2="50.6506" y2="48.98" gradientUnits="userSpaceOnUse"><stop stop-color="white"></stop><stop offset="1" stop-color="#A4A4A6"></stop></linearGradient><linearGradient id="paint12_linear_99_1737" x1="39.3139" y1="25.0586" x2="40.7089" y2="25.0895" gradientUnits="userSpaceOnUse"><stop stop-color="white"></stop><stop offset="1" stop-color="#A4A4A6"></stop></linearGradient><linearGradient id="paint13_linear_99_1737" x1="39.3139" y1="50.8398" x2="40.7089" y2="50.8708" gradientUnits="userSpaceOnUse"><stop stop-color="white"></stop><stop offset="1" stop-color="#A4A4A6"></stop></linearGradient><linearGradient id="paint14_linear_99_1737" x1="25.7372" y1="38.9746" x2="28.5068" y2="39.2201" gradientUnits="userSpaceOnUse"><stop stop-color="white"></stop><stop offset="1" stop-color="#A4A4A6"></stop></linearGradient><linearGradient id="paint15_linear_99_1737" x1="51.5185" y1="38.9746" x2="54.2881" y2="39.2201" gradientUnits="userSpaceOnUse"><stop stop-color="white"></stop><stop offset="1" stop-color="#A4A4A6"></stop></linearGradient><linearGradient id="paint16_linear_99_1737" x1="40.7713" y1="32.8223" x2="46.3505" y2="32.9636" gradientUnits="userSpaceOnUse"><stop stop-color="white"></stop><stop offset="1" stop-color="#A4A4A6"></stop></linearGradient><clipPath id="clip0_99_1737"><rect width="40" height="40" fill="white" transform="translate(20 20)"></rect></clipPath></defs></svg>